<svg width="53" height="53" viewBox="0 0 53 53" fill="none" xmlns="http://www.w3.org/2000/svg">
<path d="M53 27.5038C53 33.4324 48.1341 38.2587 42.154 38.2587C39.2791 38.2587 36.948 35.9459 36.948 33.0963V21.9113C36.948 19.8096 38.2194 18.0097 40.0381 17.2032C38.4323 11.2711 32.9798 6.88312 26.5 6.88312C20.0202 6.88312 14.5677 11.2711 12.9631 17.2032C14.7806 18.0085 16.052 19.8085 16.052 21.9113V33.0963C16.052 35.51 14.3734 37.5222 12.1139 38.0877C14.1154 41.7668 17.512 44.5923 21.5936 45.8679C22.3629 43.9212 24.266 42.5319 26.5 42.5319C29.4108 42.5319 31.7789 44.8802 31.7789 47.7654C31.7789 50.6506 29.4108 53 26.5 53C23.7257 53 21.4675 50.8582 21.2627 48.1566C16.0809 46.6503 11.8386 42.9702 9.59188 38.1818C4.20302 37.5623 0 33.0126 0 27.5026C0 23.4026 2.32769 19.8326 5.74171 18.0189C7.11495 7.86396 15.8877 0 26.5 0C37.1111 0 45.8851 7.86396 47.2583 18.02C50.6735 19.8326 53 23.4026 53 27.5038Z" fill="#406ED0"/>
</svg>
