<svg width="52" height="47" viewBox="0 0 52 47" fill="none" xmlns="http://www.w3.org/2000/svg">
<path d="M13.5422 37.2895C10.0729 37.2895 6.98717 35.0777 5.86685 31.7847L5.79101 31.5365C5.52664 30.6648 5.41613 29.9311 5.41613 29.1974V14.4849L0.15908 31.9595C-0.517012 34.5295 1.0237 37.1945 3.60888 37.9045L37.1166 46.8403C37.5348 46.9482 37.953 47 38.3648 47C40.5231 47 42.495 45.5737 43.0476 43.4719L45 37.2895H13.5422Z" fill="#80C367"/>
<path d="M19.5014 14.6316C21.8916 14.6316 23.8353 12.6959 23.8353 10.3158C23.8353 7.93563 21.8916 6 19.5014 6C17.1112 6 15.1675 7.93563 15.1675 10.3158C15.1675 12.6959 17.1112 14.6316 19.5014 14.6316Z" fill="#80C367"/>
<path fill-rule="evenodd" clip-rule="evenodd" d="M13.5 0H46.5C49.5316 0 52 2.38425 52 5.3125V28.6875C52 31.6157 49.5316 34 46.5 34H13.5C10.4684 34 8 31.6157 8 28.6875V5.3125C8 2.38425 10.4684 0 13.5 0ZM46.5 4.25H13.5C12.8928 4.25 12.4 4.726 12.4 5.3125V25.3704L18.472 19.5075C19.9746 18.054 22.4232 18.054 23.928 19.5075L26.59 22.0724L34.7608 12.5991C35.4912 11.7534 36.5604 11.2646 37.7 11.2583C38.8462 11.2838 39.9132 11.73 40.6502 12.5651L47.6 20.3979V5.3125C47.6 4.726 47.1072 4.25 46.5 4.25Z" fill="#80C367"/>
</svg>
