<svg width="53" height="40" viewBox="0 0 53 40" fill="none" xmlns="http://www.w3.org/2000/svg">
<path d="M15 11.7273V33H1V11.7273C1 10.2218 2.30667 9 3.91667 9H12.0833C13.6933 9 15 10.2218 15 11.7273Z" fill="#E07846"/>
<path d="M33 2.83333V34H19V2.83333C19 1.26933 20.3067 0 21.9167 0H30.0833C31.6933 0 33 1.26933 33 2.83333Z" fill="#E07846"/>
<path d="M51 17.8125V33H37V17.8125C37 16.26 38.3067 15 39.9167 15H48.0833C49.6933 15 51 16.26 51 17.8125Z" fill="#E07846"/>
<path d="M51.3438 40H1.65625C0.742 40 0 39.328 0 38.5C0 37.672 0.742 37 1.65625 37H51.3438C52.258 37 53 37.672 53 38.5C53 39.328 52.258 40 51.3438 40Z" fill="#E07846"/>
</svg>
