<svg width="47" height="44" viewBox="0 0 47 44" fill="none" xmlns="http://www.w3.org/2000/svg">
<path fill-rule="evenodd" clip-rule="evenodd" d="M32.3369 14.6101C32.0595 11.6328 30.5356 9.06779 28.3625 7.55203C28.42 3.37277 31.4788 0.001305 35.2497 0C39.057 0 42.1428 3.4328 42.1428 7.66817C42.1428 11.9029 39.057 15.3357 35.2497 15.3357C34.2068 15.3357 33.2232 15.0708 32.3369 14.6101ZM30.7397 15.5843C30.7397 19.819 27.6539 23.2525 23.8466 23.2525C20.04 23.2525 16.9524 19.8197 16.9524 15.585C16.9524 11.3502 20.04 7.91678 23.8466 7.91678C27.6533 7.91678 30.7397 11.3496 30.7397 15.5843ZM26.7706 23.7751H20.9215C16.055 23.7751 12.0958 28.1801 12.0958 33.5939V41.5512L12.114 41.6758L12.6067 41.8474C17.2509 43.4617 21.2858 44 24.6068 44C31.0934 44 34.8532 41.9427 35.0849 41.8115L35.5453 41.5525H35.5946V33.5939C35.5964 28.1801 31.6372 23.7751 26.7706 23.7751ZM32.3709 15.859H38.1748C43.0408 15.859 47 20.2634 47 25.6765V33.6364H46.9507L46.4903 33.896C46.2727 34.0174 42.9704 35.8242 37.2399 36.0578V33.6057C37.2399 28.3348 34.0749 23.8723 29.7491 22.4414C31.3169 20.7684 32.3082 18.4422 32.3709 15.859ZM11.7515 15.337C13.0999 15.337 14.3546 14.8992 15.4174 14.1534C15.7552 11.7019 16.9365 9.55977 18.624 8.10078C18.6262 8.05764 18.6287 8.01462 18.6313 7.97162C18.6374 7.8715 18.6434 7.77146 18.6434 7.67013C18.6434 3.43476 15.557 0.0019575 11.7515 0.0019575C7.9436 0.0019575 4.85837 3.43476 4.85837 7.67013C4.85837 11.9035 7.9436 15.337 11.7515 15.337ZM15.3218 15.8955C15.3939 18.4631 16.3817 20.7769 17.9419 22.4414C13.6149 23.8737 10.4511 28.3348 10.4499 33.6057V36.0088C7.56176 35.8209 4.23663 35.2245 0.510882 33.9306L0.018183 33.7577L0 33.635V25.6765C0 20.2634 3.95919 15.859 8.82577 15.859H14.6742C14.8779 15.859 15.076 15.8753 15.2756 15.8917C15.291 15.893 15.3064 15.8943 15.3218 15.8955Z" fill="#7BA4E4"/>
</svg>
