<svg width="54" height="36" viewBox="0 0 54 36" fill="none" xmlns="http://www.w3.org/2000/svg">
<path fill-rule="evenodd" clip-rule="evenodd" d="M9.60658 7.3131C6.56587 7.3131 3.91798 9.44809 3.31006 12.3895L0 28.4059V3.59303C0 1.61174 1.63267 -0.000269127 3.63937 3.3702e-08H20.3775C23.1241 3.3702e-08 25.4113 1.98129 25.8488 4.57277H47.4348C49.035 4.57277 50.3556 5.77538 50.5191 7.3131H9.60658ZM49.5955 33.2309L53.9639 12.0931C54.0195 11.8232 54.0091 11.558 53.9451 11.3118C53.752 10.5726 53.0732 10.0047 52.2369 10.0047H50.5366H9.60658C7.84823 10.0047 6.33278 11.2264 5.98111 12.9275L2.07104 31.8471C1.62777 33.9923 3.28798 36 5.50568 36H46.1609C47.8268 36 49.2624 34.8423 49.5955 33.2309Z" fill="#7970E3"/>
</svg>
