<svg width="44" height="48" viewBox="0 0 44 48" fill="none" xmlns="http://www.w3.org/2000/svg">
<rect x="17" y="10" width="16" height="20" fill="#79D3B1"/>
<path d="M33 34H5.14553C2.26392 34 0 37.08 0 41C0 44.92 2.26392 48 5.14553 48H33C31.6965 46.1449 30.8732 43.7299 30.8732 41C30.8732 38.2658 31.7244 35.7969 33 34Z" fill="#79D3B1"/>
<path d="M38.5 34C35.2772 34 33 37.3243 33 41C33 44.92 35.4199 48 38.5 48C41.5801 48 44 44.92 44 41C44 37.08 41.5801 34 38.5 34Z" fill="#79D3B1"/>
<path d="M42.2727 0H39.3928H10.6072H7.72727C6.75988 0 6 0.756926 6 1.72055V30.9699H12.9091V8.60274C12.9091 7.63912 13.669 6.88219 14.6364 6.88219H35.3636C36.331 6.88219 37.0909 7.63912 37.0909 8.60274V30.9699C37.2709 30.9699 38.9957 30.9485 39.1635 31.0043C40.9945 31.073 42.6181 31.7956 44 33V1.72055C44 0.756926 43.2401 0 42.2727 0Z" fill="#79D3B1"/>
</svg>
