<svg width="54" height="48" viewBox="0 0 54 48" fill="none" xmlns="http://www.w3.org/2000/svg">
<path fill-rule="evenodd" clip-rule="evenodd" d="M47 15.7142H11.0466C10.1825 15.7142 9.48337 16.4171 9.48337 17.2857C9.48337 18.1542 10.1825 18.8571 11.0466 18.8571H23.592C22.9007 19.7751 22.3839 20.8315 22.1471 21.9999H11.0466C10.1825 21.9999 9.48337 22.7028 9.48337 23.5713C9.48337 24.4399 10.1825 25.1428 11.0466 25.1428H21.9889V34.5713H17.9466L9.02546 43.5394C8.57411 43.993 7.89788 44.1218 7.32179 43.8801C6.73705 43.6377 6.35698 43.0637 6.35698 42.4284V34.5713H4.68958C2.09958 34.5713 0 32.4607 0 29.857V4.71427C0 2.11063 2.09958 0 4.68958 0H42.3104C44.9004 0 47 2.11063 47 4.71427V15.7142ZM36.0576 9.42854H11.0466C10.1825 9.42854 9.48337 10.1314 9.48337 11C9.48337 11.8685 10.1825 12.5714 11.0466 12.5714H36.0576C36.9217 12.5714 37.6208 11.8685 37.6208 11C37.6208 10.1314 36.9217 9.42854 36.0576 9.42854Z" fill="#D6534D"/>
<path fill-rule="evenodd" clip-rule="evenodd" d="M29.8155 19H49.1845C51.8399 19 54 21.1681 54 23.8333V36.7221C54 39.3873 51.8399 41.5554 49.1845 41.5554H47.4723V46.3887C47.4723 47.0401 47.0819 47.6285 46.4816 47.8771C45.8901 48.1249 45.1956 47.9929 44.7322 47.5278L38.7818 41.5554H29.8155C27.1601 41.5554 25 39.3873 25 36.7221V23.8333C25 21.1681 27.1601 19 29.8155 19ZM38.9762 34.639L43.7917 29.8057C44.4188 29.1764 44.4188 28.1568 43.7918 27.5275C43.1648 26.8982 42.149 26.8982 41.522 27.5275L37.8413 31.2217L36.5684 29.9441C35.9415 29.3148 34.9256 29.3148 34.2986 29.9441C33.6716 30.5734 33.6716 31.593 34.2986 32.2223L36.7064 34.639C37.3333 35.2683 38.3492 35.2683 38.9762 34.639Z" fill="#D6534D"/>
</svg>
