<svg width="40" height="50" viewBox="0 0 40 50" fill="none" xmlns="http://www.w3.org/2000/svg">
<path d="M37.3326 6H35.918V41.6426C35.918 44.0104 34.0387 45.9378 31.73 45.9378H17.3973H6V47.2591C6 48.7721 7.19733 50 8.67252 50H23H37.3275C38.8027 50 40 48.7721 40 47.2591V8.74094C40 7.22798 38.8078 6 37.3326 6Z" fill="#63B3D0"/>
<path fill-rule="evenodd" clip-rule="evenodd" d="M31.3271 44H16.9975H5.60351H2.67291C1.1975 44 0 42.7721 0 41.2592V12.5544H0.929707C1.0055 12.5596 1.08634 12.5648 1.16213 12.5648H6.98796H8.48358C10.5603 12.5648 12.2479 10.8342 12.2479 8.70467V7.17099V1.19689C12.2479 1.09845 12.2428 1 12.2327 0.906737V0H16.9975H31.3271C32.8025 0 34 1.22798 34 2.74094V5.61659V41.2592C34 42.7721 32.8025 44 31.3271 44ZM8.19557 34.684H17.5381C18.2354 34.684 18.8064 34.1036 18.8064 33.3886C18.8064 32.6736 18.2405 32.0933 17.5432 32.0933H8.19557C7.49829 32.0933 6.93238 32.6736 6.93238 33.3886C6.93238 34.1036 7.49829 34.684 8.19557 34.684ZM26.8857 28.0726H8.19557C7.49829 28.0726 6.93238 27.4923 6.93238 26.7773C6.93238 26.0622 7.49829 25.4819 8.19557 25.4819H26.8857C27.583 25.4819 28.1489 26.0622 28.1489 26.7773C28.1489 27.4923 27.583 28.0726 26.8857 28.0726ZM26.8857 18.4612H8.19557C7.49829 18.4612 6.93238 19.0415 6.93238 19.7565C6.93238 20.4715 7.49829 21.0518 8.19557 21.0518H26.8857C27.583 21.0518 28.1489 20.4715 28.1489 19.7565C28.1489 19.0415 27.583 18.4612 26.8857 18.4612Z" fill="#63B3D0"/>
<path d="M1.05616 10H7.90224C7.90696 10 7.91641 10 7.92114 10C9.06451 9.99055 9.99055 9.06471 10 7.92159C10 7.91686 10 7.90742 10 7.90269V1.05338C10 0.420406 9.48028 0 8.94172 0C8.68186 0 8.422 0.0944733 8.20466 0.311762L0.309657 8.20501C-0.3518 8.86632 0.115945 10 1.05616 10Z" fill="#63B3D0"/>
</svg>
